<?xml version="1.0" encoding="iso-8859-1"?>
<!-- Generator: Adobe Illustrator 19.0.0, SVG Export Plug-In . SVG Version: 6.00 Build 0)  -->
<svg version="1.1" id="Capa_1" xmlns="http://www.w3.org/2000/svg" xmlns:xlink="http://www.w3.org/1999/xlink" x="0px" y="0px"
	 viewBox="0 0 512.007 512.007" style="enable-background:new 0 0 512.007 512.007;" xml:space="preserve">
<circle style="fill:#5A915A;" cx="256.003" cy="256.003" r="256.003"/>
<path style="fill:#297F58;" d="M396.455,115.545c-9.819-9.819-23.385-15.893-38.369-15.893H153.915
	c-29.969,0-54.263,24.294-54.263,54.263v204.171c0,14.984,6.073,28.55,15.893,38.369l114.216,114.216
	C238.388,511.549,247.141,512,256,512c141.385,0,256-114.615,256-256c0-8.859-0.451-17.612-1.329-26.239L396.455,115.545z"/>
<path style="fill:#82BE50;" d="M412.348,358.085c0,29.969-24.294,54.263-54.263,54.263H153.915
	c-29.969,0-54.263-24.294-54.263-54.263V153.915c0-29.969,24.294-54.263,54.263-54.263h204.171
	c29.969,0,54.263,24.294,54.263,54.263V358.085z"/>
<path style="fill:#FFFFFF;" d="M369.377,239.548c0-50.91-50.76-92.18-113.376-92.18s-113.376,41.27-113.376,92.18
	c0,46.271,41.933,84.574,96.587,91.17c4.138,0.5,7.259,4.009,7.259,8.177v21.264c0,1.625,0.883,3.121,2.306,3.905
	c1.423,0.784,3.158,0.73,4.532-0.137c19.978-12.593,77.63-49.654,90.148-65.716C359.648,282.274,369.377,261.835,369.377,239.548z"
	/>
<g>
	<path style="fill:#82BE50;" d="M179.83,260.813v-51.335h11.858v40.924h24.873v10.412L179.83,260.813L179.83,260.813z"/>
	<path style="fill:#82BE50;" d="M222.127,260.813v-51.335h11.858v51.335H222.127z"/>
	<path style="fill:#82BE50;" d="M255.675,231.457v29.355h-11.858v-51.335h9.255l23.932,30.15v-30.15h11.858v51.335h-9.544
		L255.675,231.457z"/>
	<path style="fill:#82BE50;" d="M334.773,250.401v10.412h-36.079v-51.335h35.429v10.412h-23.57v9.978h20.245v9.616h-20.245v10.918
		L334.773,250.401L334.773,250.401z"/>
</g>
<g>
</g>
<g>
</g>
<g>
</g>
<g>
</g>
<g>
</g>
<g>
</g>
<g>
</g>
<g>
</g>
<g>
</g>
<g>
</g>
<g>
</g>
<g>
</g>
<g>
</g>
<g>
</g>
<g>
</g>
</svg>
